<svg version="1.1" xmlns="http://www.w3.org/2000/svg" x="0" y="0" viewBox="0 0 1200 600" xml:space="preserve">
  <style>
    .st0{fill:#2B579A;}
    @media (prefers-color-scheme: dark) {
      path { fill: #fff; }
    }
  </style>
  <path id="X" d="m1009.42 294.26 90.58 216.8h-35.63l-76.09-187.21-75.49 187.21h-35.03l92.4-219.21-85.75-203.52h36.23l70.05 176.34 65.82-176.34h34.42l-81.51 205.93z"/>
  <path id="C" d="M837.51 426.82c0 60.39-32.61 89.38-96.62 89.38h-1.21c-64.01 0-96.62-28.38-96.62-89.38V173.18c0-57.97 32.61-89.38 96.62-89.38h1.21c64.01 0 96.62 31.4 96.62 89.38v72.47H804.9v-61.6c0-49.52-17.51-70.05-64.62-70.05-47.1 0-64.62 20.53-64.62 70.05v231.89c0 49.52 17.51 70.05 64.62 70.05 47.1 0 64.62-20.53 64.62-70.05v-71.86h32.61v82.74z"/>
  <path id="O" class="st0" d="M450.95 83.82c2.71.26 5.42.49 8.13.79 15.24 1.66 29.25 6.4 40.96 16.68 10.94 9.62 17.43 21.88 20.97 35.84a76.36 76.36 0 0 1 2.28 18.8c-.03 86.6-.01 173.2-.04 259.8a58.86 58.86 0 0 1-8.11 29.93c-7.35 12.68-18.54 19.97-32.83 22.46-12.27 2.14-24.47 1.56-36.32-2.45-17.14-5.81-27.01-18.1-30.48-35.61-.87-4.4-1.03-8.99-1.1-13.51-.16-10-.05-20.01-.05-30.01V168.27c0-7.04 4.19-10.9 11.29-10.25 1.88.17 3.81.59 5.55 1.31 3.12 1.29 4.69 3.69 4.69 7.22-.03 82.93-.03 165.87-.02 248.8 0 15.01 10.45 28.32 24.92 31.6a38.74 38.74 0 0 0 20.16-.6c10.74-3.27 16.83-10.95 19.56-21.5a35.05 35.05 0 0 0 1.14-8.77c.06-87.53.19-175.06-.07-262.59-.05-17.27-7.1-31.7-21.8-41.66-6.46-4.38-13.78-6.65-21.46-7.74-10.77-1.52-21.49-1.19-31.92 2.09-17.94 5.63-28.41 18.23-32.67 36.19a56.84 56.84 0 0 0-1.45 12.93c-.08 86.6-.13 173.2 0 259.8.03 18.77 4.97 36.32 15.53 52 10.75 15.96 26 25.08 44.85 28.24 15.3 2.56 30.51 1.86 45.37-2.6 24.06-7.22 38.48-23.7 44.77-47.69a92.5 92.5 0 0 0 2.74-28.17c-.05-.87-.04-1.74-.04-2.62V155.51c0-7.45 4.58-11.41 12.11-10.44.81.1 1.61.23 2.4.42 3.53.83 6.05 2.82 7.17 6.37v267.31c-.13.56-.33 1.11-.37 1.68a121.32 121.32 0 0 1-8.14 36.58c-13.92 35.27-39.92 54.47-77.59 58.02l-7.78.74h-8.72l-2.57-.37c-6.55-.84-13.21-1.22-19.65-2.61-23.98-5.2-42.64-18.19-55.3-39.33a114.04 114.04 0 0 1-16.33-59.24c-.13-86.17-.04-172.34-.07-258.52 0-6.38.69-12.63 2.23-18.8 3.53-14.09 10.06-26.46 21.12-36.13 11.73-10.26 25.74-14.98 40.98-16.61 2.65-.28 5.3-.52 7.95-.78 2.66.02 5.33.02 8.01.02z"/>
  <path id="D" d="M295.06 178.01v243.97c0 59.18-32.61 89.38-96.62 89.38H100V88.64h98.43c64.02 0 96.63 30.19 96.63 89.37zm-99.04-59.18h-63.41v362.34h63.41c47.71 0 66.43-19.93 66.43-70.05V188.88c0-50.12-18.72-70.05-66.43-70.05z"/>
</svg>
